# xmcd
#
# Track frame offsets: 
#        150
#        8282
#        26453
#        38193
#        49443
#        61931
#        72589
#        84971
#        101847
#        119498
#        132735
#        150553
#        167544
#        178921
#        190658
#
# Disc length: 2739 seconds
#
# Revision: 0
# Processed by: cddbd v1.5.2PL0 Copyright (c) Steve Scherf et al.
# Submitted via: ExactAudioCopy v1.1
#
DISCID=c70ab10f
DTITLE=Cleen - A Pimp Named Slickback (mixtape)
DYEAR=2018
DGENRE=Hip-Hop
TTITLE0=A Pimp Named Slickback
TTITLE1=Can't Spark This (feat. Rizzboy)
TTITLE2=Those Words (feat. Milogic)
TTITLE3=California Acid Rain Drought (feat. Mike Colossal)
TTITLE4=The Salmon
TTITLE5=Drive - A Pimp Named Slickback meets Tom
TTITLE6=Sky Blue
TTITLE7=Radio Raheem
TTITLE8=Movie Night (with Awol One and Whut IAM)
TTITLE9=30 for 30 - 1987
TTITLE10=Heavy - Tom Reguses a Pimp Named Slickback's Help
TTITLE11=Kick Rocks (feat. Just Kauz and Whut IAM)
TTITLE12=Exit Sandman
TTITLE13=Drop Dead Nice (with Mr. P Chill)
TTITLE14=Appreciation Day
EXTD=
EXTT0=
EXTT1=
EXTT2=
EXTT3=
EXTT4=
EXTT5=
EXTT6=
EXTT7=
EXTT8=
EXTT9=
EXTT10=
EXTT11=
EXTT12=
EXTT13=
EXTT14=
PLAYORDER=
